<svg width="198" height="36" viewBox="0 0 198 36" fill="none" xmlns="http://www.w3.org/2000/svg">
<path d="M82.2859 35.405H64.7639L73.5249 20.0732L82.2859 35.405Z" fill="#0088FF"/>
<path d="M62.7284 34.2243L53.9673 18.8926L71.4894 18.8926L62.7284 34.2243Z" fill="#0088FF"/>
<path d="M39.113 35.405H21.5909L30.352 20.0732L39.113 35.405Z" fill="#0088FF"/>
<path d="M28.3175 16.531H10.7955L19.5565 1.19922L28.3175 16.531Z" fill="#0088FF"/>
<path d="M49.91 16.531H32.3879L41.149 1.19922L49.91 16.531Z" fill="#0088FF"/>
<path d="M19.5565 34.2243L10.7955 18.8926L28.3175 18.8926L19.5565 34.2243Z" fill="#0088FF"/>
<path d="M41.1489 34.2243L32.3879 18.8926L49.91 18.8926L41.1489 34.2243Z" fill="#0088FF"/>
<path d="M8.76101 15.3318L0 0L17.522 1.53182e-06L8.76101 15.3318Z" fill="#0088FF"/>
<path d="M51.9439 15.3318L43.1829 0L60.7049 1.53182e-06L51.9439 15.3318Z" fill="#0088FF"/>
<path d="M98.2347 10.41H101.863L96.5485 25.7143H91.7779L86.4737 10.41H90.1023L94.0084 22.2564H94.3179L98.2347 10.41Z" fill="#212B36"/>
<path d="M107.274 10.41H111.703L117.872 25.7143H114.243L113.165 23.0675H105.78L104.734 25.7143H101.106L107.274 10.41ZM106.922 20.2713H112.034L109.59 13.8252H109.366L106.922 20.2713Z" fill="#212B36"/>
<path d="M126.25 20.4421H123.059V25.7143H119.612V10.41H126.164C128.335 10.41 129.921 10.8155 130.924 11.6266C131.935 12.4306 132.44 13.6793 132.44 15.3727C132.44 16.0201 132.347 16.6249 132.162 17.187C131.985 17.7419 131.753 18.1795 131.469 18.4997C130.899 19.1329 130.409 19.5278 129.996 19.6843L129.708 19.7697L133.507 25.7143H129.622L126.25 20.4421ZM128.833 15.4367C128.833 14.0208 127.943 13.3164 126.164 13.3236H123.059V17.5392H126.164C127.068 17.5392 127.737 17.3684 128.171 17.0269C128.612 16.6854 128.833 16.1553 128.833 15.4367Z" fill="#212B36"/>
<path d="M140.444 17.251H140.668L144.254 10.41H148.032L142.483 20.3994V25.7143H138.63V20.3994L133.08 10.41H136.869L140.444 17.251Z" fill="#212B36"/>
<path d="M152.782 10.41H157.211L163.379 25.7143H159.751L158.673 23.0675H151.287L150.241 25.7143H146.613L152.782 10.41ZM152.429 20.2713H157.541L155.097 13.8252H154.873L152.429 20.2713Z" fill="#212B36"/>
<path d="M171.32 25.7143H165.119V10.41H171.32C173.803 10.41 175.745 11.0823 177.147 12.4271C178.541 13.7789 179.238 15.6573 179.238 18.0621C179.238 20.467 178.545 22.3418 177.157 23.6865C175.763 25.0383 173.817 25.7143 171.32 25.7143ZM168.566 22.694H171.32C172.707 22.694 173.774 22.2706 174.521 21.4239C175.261 20.5773 175.631 19.4566 175.631 18.0621C175.631 16.6676 175.261 15.547 174.521 14.7003C173.774 13.8536 172.707 13.4303 171.32 13.4303H168.566V22.694Z" fill="#212B36"/>
<path d="M194.938 14.807V15.2019H191.33V14.807C191.33 14.2307 191.085 13.786 190.594 13.473C190.11 13.1528 189.406 12.9927 188.481 12.9927C187.641 12.9927 186.962 13.135 186.442 13.4196C185.909 13.7042 185.642 14.124 185.642 14.679C185.642 15.4189 186.3 15.9347 187.616 16.2265C187.894 16.2905 188.506 16.4079 189.452 16.5786C190.398 16.7423 191.138 16.8953 191.672 17.0376C192.369 17.2297 193.013 17.4751 193.604 17.774C194.187 18.0728 194.66 18.5139 195.023 19.0973C195.386 19.6808 195.567 20.3923 195.567 21.2318C195.567 22.7117 194.952 23.8644 193.721 24.6897C192.49 25.515 190.79 25.9277 188.62 25.9277C186.371 25.9277 184.646 25.5079 183.443 24.6684C182.241 23.8288 181.64 22.6121 181.64 21.0184V20.4634H185.247V21.0824C185.247 21.8081 185.528 22.3311 186.09 22.6513C186.652 22.9714 187.495 23.1315 188.62 23.1315C190.847 23.1315 191.96 22.5054 191.96 21.2532C191.96 20.5844 191.305 20.1041 189.996 19.8124C189.939 19.7982 189.388 19.695 188.342 19.5029C187.303 19.3037 186.503 19.1187 185.941 18.9479C185.258 18.7416 184.614 18.4783 184.009 18.1582C183.433 17.8522 182.96 17.4004 182.59 16.8028C182.22 16.2193 182.035 15.5185 182.035 14.7003C182.035 13.3129 182.604 12.2136 183.742 11.4025C184.888 10.5985 186.467 10.1965 188.481 10.1965C190.537 10.1965 192.127 10.5914 193.251 11.3812C194.376 12.1852 194.938 13.3271 194.938 14.807Z" fill="#212B36"/>
</svg>
