<svg width="32" height="32" viewBox="0 0 32 32" fill="none" xmlns="http://www.w3.org/2000/svg">
<path d="M29.6 16C29.6 8.489 23.511 2.40002 16 2.40002C8.489 2.40002 2.40002 8.48889 2.40002 16C2.40002 22.7881 7.37337 28.4146 13.875 29.4348V19.9313H10.4219V16H13.875V13.0038C13.875 9.59527 15.9055 7.71252 19.0119 7.71252C20.4999 7.71252 22.0563 7.97815 22.0563 7.97815V11.325H20.3414C18.6518 11.325 18.125 12.3734 18.125 13.449V16H21.8969L21.2939 19.9313H18.125V29.4348C24.6267 28.4146 29.6 22.7882 29.6 16Z" fill="#1877F2"/>
<path d="M21.2721 19.9313L21.875 16H18.1031V13.449C18.1031 12.3733 18.63 11.325 20.3195 11.325H22.0344V7.97815C22.0344 7.97815 20.478 7.71252 18.99 7.71252C15.8836 7.71252 13.8531 9.59527 13.8531 13.0038V16H10.4V19.9313H13.8531V29.4348C14.5561 29.545 15.2666 29.6002 15.9781 29.6C16.6897 29.6002 17.4002 29.545 18.1031 29.4348V19.9313H21.2721Z" fill="white"/>
</svg>
